<svg id="visual" viewBox="0 0 900 600" width="900" height="600" xmlns="http://www.w3.org/2000/svg" xmlns:xlink="http://www.w3.org/1999/xlink" version="1.1"><rect x="0" y="0" width="900" height="600" fill="#001829"></rect><g fill="#297EA6"><path d="M0 -56.6L12.7 -17.5L53.9 -17.5L20.6 6.7L33.3 45.8L0 21.6L-33.3 45.8L-20.6 6.7L-53.9 -17.5L-12.7 -17.5Z" transform="translate(393 89)"></path><path d="M0 -25.5L5.7 -7.9L24.2 -7.9L9.3 3L15 20.6L0 9.7L-15 20.6L-9.3 3L-24.2 -7.9L-5.7 -7.9Z" transform="translate(180 128)"></path><path d="M0 -32.1L7.2 -9.9L30.5 -9.9L11.7 3.8L18.9 26L0 12.3L-18.9 26L-11.7 3.8L-30.5 -9.9L-7.2 -9.9Z" transform="translate(753 309)"></path><path d="M0 -42.5L9.5 -13.1L40.4 -13.1L15.4 5L25 34.4L0 16.2L-25 34.4L-15.4 5L-40.4 -13.1L-9.5 -13.1Z" transform="translate(443 431)"></path><path d="M0 -36.8L8.3 -11.4L35 -11.4L13.4 4.3L21.6 29.8L0 14.1L-21.6 29.8L-13.4 4.3L-35 -11.4L-8.3 -11.4Z" transform="translate(78 406)"></path><path d="M0 -48.1L10.8 -14.9L45.8 -14.9L17.5 5.7L28.3 38.9L0 18.4L-28.3 38.9L-17.5 5.7L-45.8 -14.9L-10.8 -14.9Z" transform="translate(581 523)"></path><path d="M0 -44.4L10 -13.7L42.2 -13.7L16.1 5.2L26.1 35.9L0 16.9L-26.1 35.9L-16.1 5.2L-42.2 -13.7L-10 -13.7Z" transform="translate(300 586)"></path><path d="M0 -30.2L6.8 -9.3L28.7 -9.3L11 3.6L17.8 24.4L0 11.5L-17.8 24.4L-11 3.6L-28.7 -9.3L-6.8 -9.3Z" transform="translate(821 515)"></path><path d="M0 -43.4L9.7 -13.4L41.3 -13.4L15.8 5.1L25.5 35.1L0 16.6L-25.5 35.1L-15.8 5.1L-41.3 -13.4L-9.7 -13.4Z" transform="translate(85 205)"></path><path d="M0 -49.1L11 -15.2L46.7 -15.2L17.8 5.8L28.8 39.7L0 18.7L-28.8 39.7L-17.8 5.8L-46.7 -15.2L-11 -15.2Z" transform="translate(539 265)"></path><path d="M0 -25.5L5.7 -7.9L24.2 -7.9L9.3 3L15 20.6L0 9.7L-15 20.6L-9.3 3L-24.2 -7.9L-5.7 -7.9Z" transform="translate(781 106)"></path><path d="M0 -49.1L11 -15.2L46.7 -15.2L17.8 5.8L28.8 39.7L0 18.7L-28.8 39.7L-17.8 5.8L-46.7 -15.2L-11 -15.2Z" transform="translate(294 455)"></path><path d="M0 -27.4L6.1 -8.5L26 -8.5L9.9 3.2L16.1 22.1L0 10.5L-16.1 22.1L-9.9 3.2L-26 -8.5L-6.1 -8.5Z" transform="translate(247 247)"></path></g></svg>